<svg width="38" height="38" viewBox="0 0 38 38" fill="none" xmlns="http://www.w3.org/2000/svg">
<g clip-path="url(#clip0_8_4)">
<path d="M41.8 -3.79999H-3.79999V41.8H41.8V-3.79999Z" fill="white"/>
<path d="M41.8 -3.79999H-3.79999V41.8H41.8V-3.79999Z" fill="white"/>
<path d="M41.8 -3.79999H-3.79999V41.8H41.8V-3.79999Z" fill="white"/>
<path d="M41.8 -3.79999H-3.79999V41.8H41.8V-3.79999Z" fill="white"/>
<path d="M17.2991 31.4723C15.3686 31.4723 13.4378 31.4826 11.5065 31.4668C10.7611 31.4612 10.1262 30.9783 9.91444 30.3323C9.67734 29.6079 9.86654 28.8084 10.4971 28.4169C10.8534 28.1956 11.3323 28.082 11.7574 28.078C15.2376 28.0507 18.717 28.0745 22.1971 28.0567C24.9086 28.0424 27.0509 26.2533 27.5868 23.6047C28.2467 20.3498 25.7478 17.2191 22.4097 17.1673C20.0078 17.1297 17.6047 17.1598 15.2028 17.157C14.4634 17.1558 13.9084 16.8304 13.5696 16.1702C13.2668 15.5772 13.2675 14.9281 13.7231 14.4768C14.0889 14.1126 14.6545 13.7465 15.1379 13.7382C17.807 13.6931 20.4856 13.6301 23.1452 13.8154C26.9408 14.0798 30.0972 16.9733 30.9193 20.6771C32.1425 26.1864 27.9989 31.4114 22.3495 31.4703C20.6673 31.4874 18.983 31.4723 17.2991 31.4723Z" fill="black"/>
<path d="M18.413 24.1929C16.8439 24.1929 15.2554 24.3489 13.7097 24.1617C9.92949 23.7045 6.66862 20.2314 6.27081 16.439C5.84647 12.3928 8.2191 8.52823 11.9213 7.12935C13.5906 6.49919 15.3065 6.49444 17.0319 6.56133C17.9511 6.59696 18.6161 7.38981 18.6097 8.26975C18.603 9.1481 17.9352 9.899 17.0205 9.97817C16.3958 10.0316 15.7645 9.99756 15.1351 10.0023C12.1038 10.0249 9.69991 12.2989 9.66349 15.3195C9.62589 18.4241 11.976 20.7175 14.8022 20.8363C17.0885 20.9321 19.382 20.8683 21.6719 20.8774C21.9411 20.8786 22.213 20.8766 22.4782 20.9123C23.3835 21.0346 24.0429 21.8136 23.9891 22.6773C23.9349 23.5549 23.216 24.2879 22.3211 24.3057C21.0192 24.3311 19.7161 24.3125 18.4138 24.3125C18.4138 24.2729 18.4138 24.2325 18.413 24.1929Z" fill="black"/>
</g>
<defs>
<clipPath id="clip0_8_4">
<rect width="38" height="38" fill="white"/>
</clipPath>
</defs>
</svg>
